<svg xmlns="http://www.w3.org/2000/svg" viewBox="0 0 500 380" width="100%" height="100%">
  <defs>
    <linearGradient id="grad_radar_tech_dark" x1="0%" y1="0%" x2="100%" y2="100%">
      <stop offset="0%" stop-color="#BC8CFF" stop-opacity="0.4" />
      <stop offset="100%" stop-color="#764ABC" stop-opacity="0.12" />
    </linearGradient>
  </defs>
  <rect x="1" y="1" width="498" height="378" rx="8" fill="#0D1117" stroke="#30363D" stroke-width="1" />
  <text x="250" y="26" text-anchor="middle" fill="#E6EDF3" font-size="13.5" font-weight="700" font-family="system-ui, -apple-system, sans-serif">AI PM &amp; Technical Systems</text>
  <polygon points="250.0,163.5 278.1,179.8 278.1,212.2 250.0,228.5 221.9,212.2 221.9,179.8" fill="none" stroke="rgba(255,255,255,0.08)" stroke-width="1" />
  <polygon points="250.0,131.0 306.3,163.5 306.3,228.5 250.0,261.0 193.7,228.5 193.7,163.5" fill="none" stroke="rgba(255,255,255,0.08)" stroke-width="1" />
  <polygon points="250.0,98.5 334.4,147.2 334.4,244.8 250.0,293.5 165.6,244.8 165.6,147.2" fill="none" stroke="rgba(255,255,255,0.08)" stroke-width="1" />
  <polygon points="250.0,66.0 362.6,131.0 362.6,261.0 250.0,326.0 137.4,261.0 137.4,131.0" fill="none" stroke="rgba(255,255,255,0.08)" stroke-width="1" />

  <line x1="250" y1="196" x2="250.0" y2="66.0" stroke="rgba(255,255,255,0.16)" stroke-width="1" stroke-dasharray="3 3" />
  <line x1="250" y1="196" x2="362.6" y2="131.0" stroke="rgba(255,255,255,0.16)" stroke-width="1" stroke-dasharray="3 3" />
  <line x1="250" y1="196" x2="362.6" y2="261.0" stroke="rgba(255,255,255,0.16)" stroke-width="1" stroke-dasharray="3 3" />
  <line x1="250" y1="196" x2="250.0" y2="326.0" stroke="rgba(255,255,255,0.16)" stroke-width="1" stroke-dasharray="3 3" />
  <line x1="250" y1="196" x2="137.4" y2="261.0" stroke="rgba(255,255,255,0.16)" stroke-width="1" stroke-dasharray="3 3" />
  <line x1="250" y1="196" x2="137.4" y2="131.0" stroke="rgba(255,255,255,0.16)" stroke-width="1" stroke-dasharray="3 3" />

  <text x="255" y="134.0" fill="#7D8590" font-size="9" font-family="system-ui, -apple-system, sans-serif">50%</text>
  <text x="255" y="101.5" fill="#7D8590" font-size="9" font-family="system-ui, -apple-system, sans-serif">75%</text>
  <text x="255" y="69.0" fill="#7D8590" font-size="9" font-family="system-ui, -apple-system, sans-serif">100%</text>

  <polygon points="250.0,73.8 349.1,138.8 333.3,244.1 250.0,305.2 171.2,241.5 146.4,136.2" fill="url(#grad_radar_tech_dark)" stroke="#BC8CFF" stroke-width="2.4" />
  <circle cx="250.0" cy="73.8" r="4.2" fill="#BC8CFF" />
  <circle cx="250.0" cy="73.8" r="1.8" fill="#FFFFFF" />
  <circle cx="349.1" cy="138.8" r="4.2" fill="#BC8CFF" />
  <circle cx="349.1" cy="138.8" r="1.8" fill="#FFFFFF" />
  <circle cx="333.3" cy="244.1" r="4.2" fill="#BC8CFF" />
  <circle cx="333.3" cy="244.1" r="1.8" fill="#FFFFFF" />
  <circle cx="250.0" cy="305.2" r="4.2" fill="#BC8CFF" />
  <circle cx="250.0" cy="305.2" r="1.8" fill="#FFFFFF" />
  <circle cx="171.2" cy="241.5" r="4.2" fill="#BC8CFF" />
  <circle cx="171.2" cy="241.5" r="1.8" fill="#FFFFFF" />
  <circle cx="146.4" cy="136.2" r="4.2" fill="#BC8CFF" />
  <circle cx="146.4" cy="136.2" r="1.8" fill="#FFFFFF" />

          <g>
          <text x="250.0" y="44.0" text-anchor="middle" fill="#E6EDF3" font-size="11" font-weight="600" font-family="system-ui, -apple-system, sans-serif">LLM Evals &amp; Benchmarks</text>
          <text x="250.0" y="58.0" text-anchor="middle" fill="#BC8CFF" font-size="10.5" font-weight="600" font-family="system-ui, -apple-system, sans-serif">94%</text>
        </g>
          <g>
          <text x="376.0" y="127.0" text-anchor="start" fill="#E6EDF3" font-size="11" font-weight="600" font-family="system-ui, -apple-system, sans-serif">Multi-Agent Routing</text>
          <text x="376.0" y="141.0" text-anchor="start" fill="#BC8CFF" font-size="10.5" font-weight="600" font-family="system-ui, -apple-system, sans-serif">88%</text>
        </g>
          <g>
          <text x="376.0" y="265.0" text-anchor="start" fill="#E6EDF3" font-size="11" font-weight="600" font-family="system-ui, -apple-system, sans-serif">API &amp; System Arch</text>
          <text x="376.0" y="279.0" text-anchor="start" fill="#BC8CFF" font-size="10.5" font-weight="600" font-family="system-ui, -apple-system, sans-serif">74%</text>
        </g>
          <g>
          <text x="250.0" y="348.0" text-anchor="middle" fill="#E6EDF3" font-size="11" font-weight="600" font-family="system-ui, -apple-system, sans-serif">Python &amp; Scripting</text>
          <text x="250.0" y="362.0" text-anchor="middle" fill="#BC8CFF" font-size="10.5" font-weight="600" font-family="system-ui, -apple-system, sans-serif">84%</text>
        </g>
          <g>
          <text x="124.0" y="265.0" text-anchor="end" fill="#E6EDF3" font-size="11" font-weight="600" font-family="system-ui, -apple-system, sans-serif">Data Pipelines &amp; SQL</text>
          <text x="124.0" y="279.0" text-anchor="end" fill="#BC8CFF" font-size="10.5" font-weight="600" font-family="system-ui, -apple-system, sans-serif">70%</text>
        </g>
          <g>
          <text x="124.0" y="127.0" text-anchor="end" fill="#E6EDF3" font-size="11" font-weight="600" font-family="system-ui, -apple-system, sans-serif">Guardrails &amp; Safety</text>
          <text x="124.0" y="141.0" text-anchor="end" fill="#BC8CFF" font-size="10.5" font-weight="600" font-family="system-ui, -apple-system, sans-serif">92%</text>
        </g>
</svg>
