<svg xmlns="http://www.w3.org/2000/svg" viewBox="0 0 580 390" width="100%" height="100%">
  <defs>
    <linearGradient id="grad_radar_product_dark" x1="0%" y1="0%" x2="100%" y2="100%">
      <stop offset="0%" stop-color="#39D353" stop-opacity="0.45" />
      <stop offset="100%" stop-color="#238636" stop-opacity="0.15" />
    </linearGradient>
  </defs>
  <rect x="1" y="1" width="578" height="388" rx="10" fill="#0D1117" stroke="#30363D" stroke-width="1.2" />
  <text x="290" y="26" text-anchor="middle" fill="#E6EDF3" font-size="15.5" font-weight="700" font-family="system-ui, -apple-system, sans-serif">Product Management &amp; HCI</text>
  <polygon points="290.0,163.8 317.1,179.4 317.1,210.6 290.0,226.2 262.9,210.6 262.9,179.4" fill="none" stroke="rgba(255,255,255,0.10)" stroke-width="1" />
  <polygon points="290.0,132.5 344.1,163.8 344.1,226.2 290.0,257.5 235.9,226.2 235.9,163.8" fill="none" stroke="rgba(255,255,255,0.10)" stroke-width="1" />
  <polygon points="290.0,101.2 371.2,148.1 371.2,241.9 290.0,288.8 208.8,241.9 208.8,148.1" fill="none" stroke="rgba(255,255,255,0.10)" stroke-width="1" />
  <polygon points="290.0,70.0 398.3,132.5 398.3,257.5 290.0,320.0 181.7,257.5 181.7,132.5" fill="none" stroke="rgba(255,255,255,0.10)" stroke-width="1" />

  <line x1="290" y1="195" x2="290.0" y2="70.0" stroke="rgba(255,255,255,0.18)" stroke-width="1" stroke-dasharray="3 3" />
  <line x1="290" y1="195" x2="398.3" y2="132.5" stroke="rgba(255,255,255,0.18)" stroke-width="1" stroke-dasharray="3 3" />
  <line x1="290" y1="195" x2="398.3" y2="257.5" stroke="rgba(255,255,255,0.18)" stroke-width="1" stroke-dasharray="3 3" />
  <line x1="290" y1="195" x2="290.0" y2="320.0" stroke="rgba(255,255,255,0.18)" stroke-width="1" stroke-dasharray="3 3" />
  <line x1="290" y1="195" x2="181.7" y2="257.5" stroke="rgba(255,255,255,0.18)" stroke-width="1" stroke-dasharray="3 3" />
  <line x1="290" y1="195" x2="181.7" y2="132.5" stroke="rgba(255,255,255,0.18)" stroke-width="1" stroke-dasharray="3 3" />

  <polygon points="290.0,80.0 393.9,135.0 383.1,248.8 290.0,290.0 192.6,251.2 205.6,146.2" fill="url(#grad_radar_product_dark)" stroke="#39D353" stroke-width="2.6" />
  <circle cx="290.0" cy="80.0" r="4.5" fill="#39D353" />
  <circle cx="290.0" cy="80.0" r="2.0" fill="#FFFFFF" />
  <circle cx="393.9" cy="135.0" r="4.5" fill="#39D353" />
  <circle cx="393.9" cy="135.0" r="2.0" fill="#FFFFFF" />
  <circle cx="383.1" cy="248.8" r="4.5" fill="#39D353" />
  <circle cx="383.1" cy="248.8" r="2.0" fill="#FFFFFF" />
  <circle cx="290.0" cy="290.0" r="4.5" fill="#39D353" />
  <circle cx="290.0" cy="290.0" r="2.0" fill="#FFFFFF" />
  <circle cx="192.6" cy="251.2" r="4.5" fill="#39D353" />
  <circle cx="192.6" cy="251.2" r="2.0" fill="#FFFFFF" />
  <circle cx="205.6" cy="146.2" r="4.5" fill="#39D353" />
  <circle cx="205.6" cy="146.2" r="2.0" fill="#FFFFFF" />

          <g>
          <text x="290.0" y="47.0" text-anchor="middle" fill="#E6EDF3" font-size="12.5" font-weight="600" font-family="system-ui, -apple-system, sans-serif">Customer Discovery</text>
          <text x="290.0" y="61.0" text-anchor="middle" fill="#39D353" font-size="12" font-weight="700" font-family="system-ui, -apple-system, sans-serif">92%</text>
        </g>
          <g>
          <text x="412.0" y="127.0" text-anchor="start" fill="#E6EDF3" font-size="12.5" font-weight="600" font-family="system-ui, -apple-system, sans-serif">Rapid Prototyping</text>
          <text x="412.0" y="142.0" text-anchor="start" fill="#39D353" font-size="12" font-weight="700" font-family="system-ui, -apple-system, sans-serif">96%</text>
        </g>
          <g>
          <text x="412.0" y="252.0" text-anchor="start" fill="#E6EDF3" font-size="12.5" font-weight="600" font-family="system-ui, -apple-system, sans-serif">UX &amp; Heuristics</text>
          <text x="412.0" y="267.0" text-anchor="start" fill="#39D353" font-size="12" font-weight="700" font-family="system-ui, -apple-system, sans-serif">86%</text>
        </g>
          <g>
          <text x="290.0" y="345.0" text-anchor="middle" fill="#E6EDF3" font-size="12.5" font-weight="600" font-family="system-ui, -apple-system, sans-serif">Quantitative GTM</text>
          <text x="290.0" y="360.0" text-anchor="middle" fill="#39D353" font-size="12" font-weight="700" font-family="system-ui, -apple-system, sans-serif">76%</text>
        </g>
          <g>
          <text x="168.0" y="252.0" text-anchor="end" fill="#E6EDF3" font-size="12.5" font-weight="600" font-family="system-ui, -apple-system, sans-serif">0 to 1 Roadmapping</text>
          <text x="168.0" y="267.0" text-anchor="end" fill="#39D353" font-size="12" font-weight="700" font-family="system-ui, -apple-system, sans-serif">90%</text>
        </g>
          <g>
          <text x="168.0" y="127.0" text-anchor="end" fill="#E6EDF3" font-size="12.5" font-weight="600" font-family="system-ui, -apple-system, sans-serif">Design Systems</text>
          <text x="168.0" y="142.0" text-anchor="end" fill="#39D353" font-size="12" font-weight="700" font-family="system-ui, -apple-system, sans-serif">78%</text>
        </g>
</svg>
