<svg xmlns="http://www.w3.org/2000/svg" viewBox="0 0 500 380" width="100%" height="100%">
  <defs>
    <linearGradient id="grad_product_dark" x1="0%" y1="0%" x2="100%" y2="100%">
      <stop offset="0%" stop-color="#39D353" stop-opacity="0.40" />
      <stop offset="100%" stop-color="#1A7F37" stop-opacity="0.12" />
    </linearGradient>
  </defs>
  <rect x="1" y="1" width="498" height="378" rx="8" fill="#0D1117" stroke="#30363D" stroke-width="1" />
  <text x="250" y="28" text-anchor="middle" fill="#E6EDF3" font-size="13" font-weight="700" font-family="system-ui, -apple-system, sans-serif">Product Management &amp; HCI</text>
  <polygon points="250.0,166.2 274.9,180.6 274.9,209.4 250.0,223.8 225.1,209.4 225.1,180.6" fill="none" stroke="rgba(255,255,255,0.08)" stroke-width="1" />
<polygon points="250.0,137.5 299.8,166.2 299.8,223.8 250.0,252.5 200.2,223.8 200.2,166.3" fill="none" stroke="rgba(255,255,255,0.08)" stroke-width="1" />
<polygon points="250.0,108.8 324.7,151.9 324.7,238.1 250.0,281.2 175.3,238.1 175.3,151.9" fill="none" stroke="rgba(255,255,255,0.08)" stroke-width="1" />
<polygon points="250.0,80.0 349.6,137.5 349.6,252.5 250.0,310.0 150.4,252.5 150.4,137.5" fill="none" stroke="rgba(255,255,255,0.08)" stroke-width="1" />

  <line x1="250" y1="195" x2="250.0" y2="80.0" stroke="rgba(255,255,255,0.16)" stroke-width="1" stroke-dasharray="3 3" />
<line x1="250" y1="195" x2="349.6" y2="137.5" stroke="rgba(255,255,255,0.16)" stroke-width="1" stroke-dasharray="3 3" />
<line x1="250" y1="195" x2="349.6" y2="252.5" stroke="rgba(255,255,255,0.16)" stroke-width="1" stroke-dasharray="3 3" />
<line x1="250" y1="195" x2="250.0" y2="310.0" stroke="rgba(255,255,255,0.16)" stroke-width="1" stroke-dasharray="3 3" />
<line x1="250" y1="195" x2="150.4" y2="252.5" stroke="rgba(255,255,255,0.16)" stroke-width="1" stroke-dasharray="3 3" />
<line x1="250" y1="195" x2="150.4" y2="137.5" stroke="rgba(255,255,255,0.16)" stroke-width="1" stroke-dasharray="3 3" />

  <text x="255" y="140.5" fill="#7D8590" font-size="8.5" font-family="system-ui, -apple-system, sans-serif">50%</text>
<text x="255" y="111.8" fill="#7D8590" font-size="8.5" font-family="system-ui, -apple-system, sans-serif">75%</text>
<text x="255" y="83.0" fill="#7D8590" font-size="8.5" font-family="system-ui, -apple-system, sans-serif">100%</text>

  <polygon points="250.0,89.2 345.6,139.8 335.6,244.4 250.0,282.4 160.4,246.8 172.3,150.2" fill="url(#grad_product_dark)" stroke="#39D353" stroke-width="2.2" />
  <circle cx="250.0" cy="89.2" r="4" fill="#39D353" />
<circle cx="250.0" cy="89.2" r="1.8" fill="#FFFFFF" />
<circle cx="345.6" cy="139.8" r="4" fill="#39D353" />
<circle cx="345.6" cy="139.8" r="1.8" fill="#FFFFFF" />
<circle cx="335.6" cy="244.4" r="4" fill="#39D353" />
<circle cx="335.6" cy="244.4" r="1.8" fill="#FFFFFF" />
<circle cx="250.0" cy="282.4" r="4" fill="#39D353" />
<circle cx="250.0" cy="282.4" r="1.8" fill="#FFFFFF" />
<circle cx="160.4" cy="246.8" r="4" fill="#39D353" />
<circle cx="160.4" cy="246.8" r="1.8" fill="#FFFFFF" />
<circle cx="172.3" cy="150.2" r="4" fill="#39D353" />
<circle cx="172.3" cy="150.2" r="1.8" fill="#FFFFFF" />

  
        <g>
          <text x="250.0" y="56.0" text-anchor="middle" fill="#E6EDF3" font-size="10.5" font-weight="600" font-family="system-ui, -apple-system, sans-serif">Customer Discovery</text>
          <text x="250.0" y="68.0" text-anchor="middle" fill="#39D353" font-size="10" font-weight="600" font-family="system-ui, -apple-system, sans-serif">92%</text>
        </g>
        
        <g>
          <text x="369.2" y="126.5" text-anchor="start" fill="#E6EDF3" font-size="10.5" font-weight="600" font-family="system-ui, -apple-system, sans-serif">Rapid Prototyping</text>
          <text x="369.2" y="138.5" text-anchor="start" fill="#39D353" font-size="10" font-weight="600" font-family="system-ui, -apple-system, sans-serif">96%</text>
        </g>
        
        <g>
          <text x="369.2" y="269.5" text-anchor="start" fill="#E6EDF3" font-size="10.5" font-weight="600" font-family="system-ui, -apple-system, sans-serif">UX &amp; Heuristics</text>
          <text x="369.2" y="281.5" text-anchor="start" fill="#39D353" font-size="10" font-weight="600" font-family="system-ui, -apple-system, sans-serif">86%</text>
        </g>
        
        <g>
          <text x="250.0" y="342.0" text-anchor="middle" fill="#E6EDF3" font-size="10.5" font-weight="600" font-family="system-ui, -apple-system, sans-serif">Quantitative GTM</text>
          <text x="250.0" y="354.0" text-anchor="middle" fill="#39D353" font-size="10" font-weight="600" font-family="system-ui, -apple-system, sans-serif">76%</text>
        </g>
        
        <g>
          <text x="130.8" y="269.5" text-anchor="end" fill="#E6EDF3" font-size="10.5" font-weight="600" font-family="system-ui, -apple-system, sans-serif">0 to 1 Roadmapping</text>
          <text x="130.8" y="281.5" text-anchor="end" fill="#39D353" font-size="10" font-weight="600" font-family="system-ui, -apple-system, sans-serif">90%</text>
        </g>
        
        <g>
          <text x="130.8" y="126.5" text-anchor="end" fill="#E6EDF3" font-size="10.5" font-weight="600" font-family="system-ui, -apple-system, sans-serif">Design Systems</text>
          <text x="130.8" y="138.5" text-anchor="end" fill="#39D353" font-size="10" font-weight="600" font-family="system-ui, -apple-system, sans-serif">78%</text>
        </g>
        
</svg>