<svg xmlns="http://www.w3.org/2000/svg" viewBox="0 0 540 420" width="100%" height="100%">
  <defs>
    <linearGradient id="polyGradDark" x1="0%" y1="0%" x2="100%" y2="100%">
      <stop offset="0%" stop-color="#58A6FF" stop-opacity="0.45" />
      <stop offset="100%" stop-color="#1F6FEB" stop-opacity="0.15" />
    </linearGradient>
    <linearGradient id="polyGradLight" x1="0%" y1="0%" x2="100%" y2="100%">
      <stop offset="0%" stop-color="#0969DA" stop-opacity="0.35" />
      <stop offset="100%" stop-color="#218BFF" stop-opacity="0.12" />
    </linearGradient>
    <filter id="glow" x="-20%" y="-20%" width="140%" height="140%">
      <feGaussianBlur stdDeviation="3" result="blur" />
      <feComposite in="SourceGraphic" in2="blur" operator="over" />
    </filter>
  </defs>

  <!-- Background container card -->
  <rect x="1" y="1" width="538" height="418" rx="10" fill="#0D1117" stroke="#30363D" stroke-width="1" />

  <!-- Grid webs -->
  <polygon points="270.0,183.0 293.4,196.5 293.4,223.5 270.0,237.0 246.6,223.5 246.6,196.5" fill="none" stroke="rgba(255,255,255,0.08)" stroke-width="1" />
<polygon points="270.0,156.0 316.8,183.0 316.8,237.0 270.0,264.0 223.2,237.0 223.2,183.0" fill="none" stroke="rgba(255,255,255,0.08)" stroke-width="1" />
<polygon points="270.0,129.0 340.1,169.5 340.1,250.5 270.0,291.0 199.9,250.5 199.9,169.5" fill="none" stroke="rgba(255,255,255,0.08)" stroke-width="1" />
<polygon points="270.0,102.0 363.5,156.0 363.5,264.0 270.0,318.0 176.5,264.0 176.5,156.0" fill="none" stroke="rgba(255,255,255,0.08)" stroke-width="1" />
<polygon points="270.0,75.0 386.9,142.5 386.9,277.5 270.0,345.0 153.1,277.5 153.1,142.5" fill="none" stroke="rgba(255,255,255,0.08)" stroke-width="1" />


  <!-- Radial spokes -->
  <line x1="270" y1="210" x2="270.0" y2="75.0" stroke="rgba(255,255,255,0.16)" stroke-width="1" stroke-dasharray="3 3" />
<line x1="270" y1="210" x2="386.9" y2="142.5" stroke="rgba(255,255,255,0.16)" stroke-width="1" stroke-dasharray="3 3" />
<line x1="270" y1="210" x2="386.9" y2="277.5" stroke="rgba(255,255,255,0.16)" stroke-width="1" stroke-dasharray="3 3" />
<line x1="270" y1="210" x2="270.0" y2="345.0" stroke="rgba(255,255,255,0.16)" stroke-width="1" stroke-dasharray="3 3" />
<line x1="270" y1="210" x2="153.1" y2="277.5" stroke="rgba(255,255,255,0.16)" stroke-width="1" stroke-dasharray="3 3" />
<line x1="270" y1="210" x2="153.1" y2="142.5" stroke="rgba(255,255,255,0.16)" stroke-width="1" stroke-dasharray="3 3" />


  <!-- Level percentage markers -->
  <text x="276" y="159.0" fill="#7D8590" font-size="9" font-family="JetBrains Mono, monospace">40%</text>
<text x="276" y="132.0" fill="#7D8590" font-size="9" font-family="JetBrains Mono, monospace">60%</text>
<text x="276" y="105.0" fill="#7D8590" font-size="9" font-family="JetBrains Mono, monospace">80%</text>
<text x="276" y="78.0" fill="#7D8590" font-size="9" font-family="JetBrains Mono, monospace">100%</text>


  <!-- Data Polygon Fill & Stroke -->
  <polygon points="270.0,81.8 377.6,147.9 375.2,270.8 270.0,328.8 169.5,268.1 167.1,150.6" fill="url(#polyGradDark)" stroke="#58A6FF" stroke-width="2.2" filter="url(#glow)" />

  <!-- Vertex dots -->
  <circle cx="270.0" cy="81.8" r="4.5" fill="#58A6FF" />
<circle cx="270.0" cy="81.8" r="2" fill="#FFFFFF" />
<circle cx="377.6" cy="147.9" r="4.5" fill="#58A6FF" />
<circle cx="377.6" cy="147.9" r="2" fill="#FFFFFF" />
<circle cx="375.2" cy="270.8" r="4.5" fill="#58A6FF" />
<circle cx="375.2" cy="270.8" r="2" fill="#FFFFFF" />
<circle cx="270.0" cy="328.8" r="4.5" fill="#58A6FF" />
<circle cx="270.0" cy="328.8" r="2" fill="#FFFFFF" />
<circle cx="169.5" cy="268.1" r="4.5" fill="#58A6FF" />
<circle cx="169.5" cy="268.1" r="2" fill="#FFFFFF" />
<circle cx="167.1" cy="150.6" r="4.5" fill="#58A6FF" />
<circle cx="167.1" cy="150.6" r="2" fill="#FFFFFF" />


  <!-- Axis Labels -->
  
        <g>
          <text x="270.0" y="39.0" text-anchor="middle" fill="#E6EDF3" font-size="12" font-weight="600" font-family="JetBrains Mono, monospace">AI Systems & Evals</text>
          <text x="270.0" y="52.0" text-anchor="middle" fill="#58A6FF" font-size="11" font-weight="500" font-family="JetBrains Mono, monospace">95%</text>
        </g>
        
        <g>
          <text x="415.4" y="127.5" text-anchor="start" fill="#E6EDF3" font-size="12" font-weight="600" font-family="JetBrains Mono, monospace">Product Discovery</text>
          <text x="415.4" y="140.5" text-anchor="start" fill="#58A6FF" font-size="11" font-weight="500" font-family="JetBrains Mono, monospace">92%</text>
        </g>
        
        <g>
          <text x="415.4" y="298.5" text-anchor="start" fill="#E6EDF3" font-size="12" font-weight="600" font-family="JetBrains Mono, monospace">Rapid Prototyping</text>
          <text x="415.4" y="311.5" text-anchor="start" fill="#58A6FF" font-size="11" font-weight="500" font-family="JetBrains Mono, monospace">90%</text>
        </g>
        
        <g>
          <text x="270.0" y="387.0" text-anchor="middle" fill="#E6EDF3" font-size="12" font-weight="600" font-family="JetBrains Mono, monospace">System Architecture</text>
          <text x="270.0" y="400.0" text-anchor="middle" fill="#58A6FF" font-size="11" font-weight="500" font-family="JetBrains Mono, monospace">88%</text>
        </g>
        
        <g>
          <text x="124.6" y="298.5" text-anchor="end" fill="#E6EDF3" font-size="12" font-weight="600" font-family="JetBrains Mono, monospace">Data & Quantitative</text>
          <text x="124.6" y="311.5" text-anchor="end" fill="#58A6FF" font-size="11" font-weight="500" font-family="JetBrains Mono, monospace">86%</text>
        </g>
        
        <g>
          <text x="124.6" y="127.5" text-anchor="end" fill="#E6EDF3" font-size="12" font-weight="600" font-family="JetBrains Mono, monospace">GTM & Commercial</text>
          <text x="124.6" y="140.5" text-anchor="end" fill="#58A6FF" font-size="11" font-weight="500" font-family="JetBrains Mono, monospace">88%</text>
        </g>
        
</svg>